<?xml version="1.0" standalone="no"?>
<!DOCTYPE svg PUBLIC "-//W3C//DTD SVG 20010904//EN"
 "http://www.w3.org/TR/2001/REC-SVG-20010904/DTD/svg10.dtd">
<svg version="1.0" xmlns="http://www.w3.org/2000/svg"
 width="512.000000pt" height="512.000000pt" viewBox="0 0 512.000000 512.000000"
 preserveAspectRatio="xMidYMid meet">

<g transform="translate(0.000000,512.000000) scale(0.100000,-0.100000)"
fill="#000000" stroke="none">
<path d="M4046 4860 c-76 -14 -140 -37 -203 -75 -47 -27 -2542 -2232 -2551
-2254 -1 -3 330 -338 736 -744 l739 -739 1122 1228 c617 675 1134 1248 1148
1272 110 187 107 422 -8 596 -38 57 -511 570 -560 607 -114 87 -292 132 -423
109z"/>
<path d="M1017 2261 c-122 -165 -170 -368 -133 -562 21 -114 20 -213 -3 -287
l-18 -60 361 -361 361 -361 79 20 c96 24 132 25 228 4 108 -24 255 -21 352 5
92 25 213 86 271 136 l40 34 -746 747 -747 747 -45 -62z"/>
<path d="M343 804 c-345 -337 -354 -348 -339 -428 9 -48 59 -103 104 -116 48
-13 1004 -13 1052 0 23 6 62 37 115 90 l80 80 -345 345 -345 345 -322 -316z"/>
<path d="M2642 530 c-96 -58 -95 -183 1 -254 28 -21 35 -21 775 -24 828 -3
806 -5 857 62 37 48 41 102 13 155 -46 86 9 81 -853 81 -741 0 -761 -1 -793
-20z"/>
</g>
</svg>
